<svg width="161" height="42" viewBox="0 0 161 42" fill="none" xmlns="http://www.w3.org/2000/svg">
<g clip-path="url(#clip0_0_129)">
<path fill-rule="evenodd" clip-rule="evenodd" d="M41 21.037C40.979 32.084 32.008 41.021 20.962 41C9.915 40.977 0.979001 32.008 1 20.963C1.02 9.916 9.992 0.979001 21.038 1C32.083 1.02 41.019 9.992 41 21.037" fill="#F9792F"/>
<path fill-rule="evenodd" clip-rule="evenodd" d="M21.992 22.053C21.118 22.016 20.422 21.291 20.423 20.408C20.425 19.5 21.161 18.768 22.07 18.768L32.11 18.787C33.019 18.789 33.755 19.525 33.752 20.432C33.75 21.34 33.015 22.076 32.105 22.074L22.063 22.055C22.04 22.055 22.016 22.055 21.992 22.053" fill="white"/>
<path fill-rule="evenodd" clip-rule="evenodd" d="M7.973 20.975C7.989 13.732 13.87 7.869 21.116 7.881C25.337 7.889 29.087 9.906 31.472 12.996V12.998C32.119 13.836 31.964 15.041 31.126 15.688C30.286 16.336 29.083 16.18 28.434 15.342C26.729 13.141 24.097 11.727 21.109 11.721C15.984 11.719 11.829 15.859 11.812 20.982C11.809 26.107 15.949 30.262 21.073 30.281C24.483 30.287 27.453 28.451 29.078 25.709C29.617 24.795 30.794 24.49 31.704 25.031C32.618 25.568 32.922 26.746 32.382 27.658C30.102 31.522 25.89 34.125 21.066 34.117C13.819 34.104 7.96 28.219 7.973 20.975" fill="white"/>
<path fill-rule="evenodd" clip-rule="evenodd" d="M56.631 20.658H61.906V28.204C61.084 28.466 60.25 28.665 59.401 28.799C58.552 28.933 57.568 29 56.451 29C54.101 29 52.272 28.301 50.963 26.903C49.654 25.507 49 23.549 49 21.03C49 19.417 49.324 18.003 49.971 16.79C50.619 15.576 51.551 14.649 52.768 14.009C53.984 13.369 55.411 13.049 57.045 13.049C58.701 13.049 60.243 13.353 61.672 13.962L60.972 15.554C59.571 14.959 58.223 14.662 56.928 14.662C55.039 14.662 53.564 15.224 52.502 16.349C51.441 17.474 50.911 19.034 50.911 21.03C50.911 23.125 51.421 24.712 52.444 25.795C53.466 26.877 54.968 27.419 56.949 27.419C58.025 27.419 59.075 27.295 60.102 27.047V22.272H56.631V20.658" fill="#222222"/>
<path fill-rule="evenodd" clip-rule="evenodd" d="M70.269 29C68.549 29 67.192 28.477 66.199 27.43C65.204 26.383 64.707 24.929 64.707 23.067C64.707 21.193 65.169 19.703 66.092 18.599C67.015 17.495 68.255 16.943 69.812 16.943C71.27 16.943 72.423 17.423 73.272 18.382C74.121 19.34 74.545 20.606 74.545 22.176V23.29H66.533C66.568 24.656 66.913 25.693 67.567 26.4C68.222 27.107 69.144 27.462 70.332 27.462C71.585 27.462 72.822 27.2 74.047 26.676V28.247C73.424 28.516 72.835 28.708 72.279 28.825C71.724 28.941 71.054 29 70.269 29ZM69.791 18.419C68.857 18.419 68.112 18.723 67.557 19.332C67.001 19.94 66.674 20.782 66.575 21.857H72.657C72.657 20.747 72.409 19.896 71.914 19.305C71.418 18.715 70.71 18.419 69.791 18.419Z" fill="#222222"/>
<path fill-rule="evenodd" clip-rule="evenodd" d="M81.222 27.547C81.533 27.547 81.834 27.523 82.124 27.477C82.414 27.431 82.645 27.384 82.814 27.334V28.682C82.623 28.774 82.342 28.85 81.97 28.91C81.599 28.971 81.264 29 80.967 29C78.717 29 77.592 27.815 77.592 25.445V18.525H75.926L75.93 17.132L77.592 17.118L77.601 14.46H79.354V17.155H82.729V18.525H79.354V25.37C79.354 26.07 79.52 26.609 79.853 26.983C80.185 27.358 80.642 27.547 81.222 27.547" fill="#222222"/>
<path fill-rule="evenodd" clip-rule="evenodd" d="M105.675 27.547C105.986 27.547 106.287 27.523 106.576 27.477C106.867 27.431 107.097 27.384 107.267 27.334V28.682C107.076 28.774 106.795 28.85 106.422 28.91C106.052 28.971 105.717 29 105.42 29C103.17 29 102.045 27.815 102.045 25.445V18.525H100.379L100.383 17.132L102.045 17.118L102.054 14.46H103.807V17.155H107.182V18.525H103.807V25.37C103.807 26.07 103.973 26.609 104.306 26.983C104.639 27.358 105.094 27.547 105.675 27.547" fill="#222222"/>
<path fill-rule="evenodd" clip-rule="evenodd" d="M135.127 27.547C135.438 27.547 135.738 27.523 136.029 27.477C136.318 27.431 136.549 27.384 136.719 27.334V28.682C136.527 28.774 136.246 28.85 135.875 28.91C135.504 28.971 135.17 29 134.872 29C132.622 29 131.497 27.815 131.497 25.445V18.525H129.83L129.835 17.132L131.497 17.118L131.506 14.46H133.259V17.155H136.634V18.525H133.259V25.37C133.259 26.07 133.425 26.609 133.758 26.983C134.09 27.358 134.547 27.547 135.127 27.547" fill="#222222"/>
<path fill-rule="evenodd" clip-rule="evenodd" d="M99.371 24.659C99.371 26.025 98.875 27.09 97.885 27.854C96.895 28.618 95.551 29 93.852 29C92.012 29 90.598 28.763 89.606 28.289V26.549C90.244 26.818 90.937 27.03 91.687 27.186C92.437 27.341 93.18 27.419 93.916 27.419C95.118 27.419 96.023 27.19 96.633 26.734C97.24 26.278 97.545 25.643 97.545 24.829C97.545 24.292 97.438 23.852 97.222 23.508C97.006 23.164 96.645 22.849 96.139 22.559C95.633 22.268 94.863 21.94 93.83 21.57C92.387 21.055 91.355 20.442 90.736 19.735C90.117 19.027 89.809 18.104 89.809 16.965C89.809 15.77 90.258 14.817 91.156 14.11C92.055 13.402 93.243 13.049 94.723 13.049C96.265 13.049 97.684 13.331 98.979 13.898L98.416 15.469C97.135 14.932 95.89 14.662 94.68 14.662C93.725 14.662 92.979 14.867 92.44 15.277C91.902 15.688 91.634 16.258 91.634 16.986C91.634 17.524 91.732 17.964 91.932 18.307C92.129 18.65 92.463 18.965 92.934 19.252C93.404 19.538 94.124 19.856 95.094 20.202C96.721 20.782 97.841 21.405 98.453 22.07C99.064 22.734 99.371 23.599 99.371 24.659" fill="#222222"/>
<path fill-rule="evenodd" clip-rule="evenodd" d="M116.698 28.788L116.686 27.132H116.601C116.021 27.861 115.441 28.354 114.865 28.613C114.289 28.871 113.568 29 112.705 29C111.553 29 110.648 28.703 109.994 28.108C109.34 27.514 109.012 26.669 109.012 25.572C109.012 23.223 110.891 21.992 114.648 21.879L116.622 21.815V21.094C116.622 20.181 116.426 19.507 116.033 19.071C115.641 18.637 115.012 18.419 114.148 18.419C113.18 18.419 112.083 18.716 110.859 19.311L110.318 17.962C110.891 17.651 111.519 17.407 112.201 17.231C112.885 17.054 113.568 16.965 114.256 16.965C115.642 16.965 116.67 17.273 117.338 17.889C118.008 18.504 118.342 19.49 118.342 20.849V28.788H116.698ZM113.057 27.547C114.152 27.547 115.014 27.246 115.641 26.644C116.267 26.043 116.58 25.2 116.58 24.118V23.067L114.818 23.142C113.416 23.191 112.406 23.409 111.787 23.795C111.168 24.18 110.859 24.78 110.859 25.594C110.859 26.231 111.052 26.715 111.437 27.047C111.823 27.38 112.362 27.547 113.057 27.547Z" fill="#222222"/>
<path fill-rule="evenodd" clip-rule="evenodd" d="M127.062 16.943C127.579 16.943 128.043 16.986 128.453 17.07L128.209 18.705C127.727 18.599 127.303 18.547 126.936 18.547C125.994 18.547 125.189 18.929 124.521 19.692C123.852 20.457 123.518 21.408 123.518 22.547V28.788H121.756V17.155H123.423L123.412 19.311H123.496C123.928 18.553 124.447 17.97 125.057 17.559C125.666 17.148 126.334 16.943 127.062 16.943" fill="#222222"/>
<path fill-rule="evenodd" clip-rule="evenodd" d="M143.723 29C142.003 29 140.646 28.477 139.652 27.43C138.658 26.383 138.162 24.929 138.162 23.067C138.162 21.193 138.623 19.703 139.547 18.599C140.469 17.495 141.71 16.943 143.266 16.943C144.725 16.943 145.877 17.423 146.727 18.382C147.575 19.34 148 20.606 148 22.176V23.29H139.987C140.021 24.656 140.367 25.693 141.021 26.4C141.676 27.107 142.598 27.462 143.785 27.462C145.039 27.462 146.277 27.2 147.502 26.676V28.247C146.878 28.516 146.289 28.708 145.733 28.825C145.178 28.941 144.508 29 143.723 29ZM143.245 18.419C142.311 18.419 141.566 18.723 141.012 19.332C140.455 19.94 140.128 20.782 140.029 21.857H146.111C146.111 20.747 145.863 19.896 145.367 19.305C144.873 18.715 144.164 18.419 143.245 18.419Z" fill="#222222"/>
<path fill-rule="evenodd" clip-rule="evenodd" d="M158.857 27.229H158.762C157.948 28.41 156.731 29 155.11 29C153.59 29 152.406 28.481 151.561 27.44C150.715 26.4 150.293 24.921 150.293 23.004C150.293 21.087 150.718 19.597 151.566 18.535C152.416 17.474 153.597 16.943 155.11 16.943C156.689 16.943 157.898 17.517 158.741 18.663L158.743 12.255L160.523 12.273V28.788H158.853L158.857 27.229ZM155.334 27.525C156.537 27.525 157.409 27.197 157.949 26.543C158.492 25.889 158.762 24.833 158.762 23.375V23.004C158.762 21.356 158.487 20.179 157.939 19.475C157.391 18.771 156.516 18.419 155.313 18.419C154.279 18.419 153.488 18.82 152.94 19.623C152.393 20.426 152.119 21.561 152.119 23.025C152.119 24.511 152.391 25.633 152.936 26.389C153.48 27.147 154.279 27.525 155.334 27.525Z" fill="#222222"/>
</g>
<defs>
<clipPath id="clip0_0_129">
<rect width="161" height="42" fill="white"/>
</clipPath>
</defs>
</svg>
