<svg width="98" height="98" viewBox="0 0 98 98" fill="none" xmlns="http://www.w3.org/2000/svg">
<g clip-path="url(#clip0_415_25)">
<path fill-rule="evenodd" clip-rule="evenodd" d="M93.5502 40.8412H87.0855C86.3492 40.8412 85.4537 40.1766 85.186 39.302L81.3824 30.0805C81.0408 29.4552 81.1954 28.3452 81.7032 27.8398L86.2615 23.2775C87.1085 22.4398 87.5725 21.3206 87.5725 20.1321C87.5725 18.9391 87.1085 17.8222 86.2684 16.9868L81.0131 11.7138C79.3398 10.0592 76.4202 10.0522 74.7284 11.723L70.1678 16.2991C69.6739 16.7883 68.8107 17.0953 67.7306 16.5391L58.5147 12.7568C57.82 12.5514 57.1669 11.6584 57.1669 10.9199V4.45381C57.1669 1.99845 55.1635 0 52.7032 0H45.2853C42.8342 0 40.8401 1.99845 40.8401 4.45381V10.9199C40.8401 11.6399 40.1592 12.5514 39.2983 12.8145L30.0802 16.6222C29.4778 16.9545 28.3238 16.7883 27.8345 16.3037L23.26 11.7253C21.5821 10.0592 18.6533 10.0592 16.9753 11.7299L11.72 16.9822C10.8753 17.8222 10.4114 18.9391 10.4114 20.1321C10.4114 21.3206 10.8753 22.4398 11.7154 23.2729L16.2852 27.8444C16.793 28.3475 16.9546 29.4575 16.5299 30.2559L12.7517 39.4682C12.5417 40.1605 11.6346 40.8412 10.9168 40.8412H4.4429C1.9918 40.8412 0 42.8397 0 45.2927V52.7165C0 55.1673 1.9918 57.1657 4.4429 57.1657H10.9168C11.6346 57.1657 12.5417 57.8442 12.8094 58.698L16.6107 67.9148C16.9615 68.5541 16.8045 69.6456 16.2852 70.1602L11.72 74.7225C10.8753 75.5625 10.4114 76.684 10.4114 77.8794C10.4114 79.0748 10.8799 80.1917 11.7154 81.0201L16.98 86.2932C18.6694 87.9432 21.5867 87.9408 23.2646 86.2724L27.8345 81.6986C28.3169 81.2163 29.1777 80.9117 30.2556 81.4701L39.4645 85.2478C40.1592 85.4509 40.8401 86.3601 40.8401 87.0824V93.5462C40.8401 96.0039 42.8342 98 45.2853 98H52.7032C55.1635 98 57.1669 96.0039 57.1669 93.5462V87.0824C57.1669 86.3439 57.82 85.4509 58.6855 85.1878L67.9106 81.3871C68.5084 81.0547 69.6808 81.2186 70.1632 81.6986L74.7284 86.2793C76.4017 87.9524 79.3444 87.9547 81.0223 86.2793L86.2615 81.0271C87.1039 80.1917 87.5725 79.0748 87.5725 77.8794C87.5725 76.684 87.1085 75.5625 86.2661 74.7271L81.6986 70.1671C81.1954 69.6618 81.0408 68.5448 81.4678 67.7418L85.246 58.5295C85.4537 57.8303 86.3492 57.1657 87.0855 57.1657H93.5502C96.0013 57.1657 98 55.1673 98 52.7165V45.2927C98 42.8397 96.0013 40.8412 93.5502 40.8412V40.8412Z" stroke="#888888" stroke-width="2" stroke-linecap="square"/>
<path fill-rule="evenodd" clip-rule="evenodd" d="M49.0026 34C40.7308 34 34 40.7291 34 49.0013C34 57.2734 40.7308 64 49.0026 64C57.2717 64 64 57.2734 64 49.0013C64 40.7291 57.2717 34 49.0026 34V34Z" stroke="#F9792F" stroke-width="2"/>
</g>
<defs>
<clipPath id="clip0_415_25">
<rect width="98" height="98" fill="white"/>
</clipPath>
</defs>
</svg>
